<?xml version="1.0" encoding="utf-8"?>
<!-- Generator: Adobe Illustrator 24.0.1, SVG Export Plug-In . SVG Version: 6.00 Build 0)  -->
<svg version="1.1" id="레이어_2" xmlns="http://www.w3.org/2000/svg" xmlns:xlink="http://www.w3.org/1999/xlink" x="0px"
	 y="0px" viewBox="0 0 900 900" style="enable-background:new 0 0 900 900;" xml:space="preserve">
<style type="text/css">
	.st0{fill:#1C2C60;}
</style>
<g>
	<polygon class="st0" points="6.68,0 410.69,0 410.69,133.14 276.63,133.14 276.63,410.43 141.66,410.43 141.66,134.97 6.68,134.97 
			"/>
	<polygon class="st0" points="625.63,410.62 761.16,410.62 693.4,205.85 	"/>
	<polygon class="st0" points="625.63,0 491.69,0 491.69,405.11 	"/>
	<polygon class="st0" points="761.16,0 896.2,405.11 896.2,0 	"/>
	<rect x="3.8" y="627.19" class="st0" width="134.95" height="272.81"/>
	<rect x="277.32" y="627.19" class="st0" width="133.7" height="272.81"/>
	<polygon class="st0" points="761.16,627.19 761.16,696.57 896.2,696.57 896.2,490.5 491.69,490.5 491.69,900 896.2,900 
		896.2,767.9 624.51,767.9 624.51,625.85 	"/>
</g>
</svg>
