<?xml version="1.0" encoding="utf-8"?>
<!-- Generator: Adobe Illustrator 24.0.1, SVG Export Plug-In . SVG Version: 6.00 Build 0)  -->
<svg version="1.1" id="레이어_1" xmlns="http://www.w3.org/2000/svg" xmlns:xlink="http://www.w3.org/1999/xlink" x="0px"
	 y="0px" viewBox="0 0 595.28 841.89" style="enable-background:new 0 0 595.28 841.89;" xml:space="preserve">
<style type="text/css">
	.st0{fill:#1B2D55;}
</style>
<polygon class="st0" points="91.46,211.32 91.46,276.48 154.76,276.48 154.76,404.4 218.32,404.4 218.32,275.95 280.29,275.95 
	280.29,211.32 "/>
<polyline class="st0" points="314.28,211.32 377.52,211.32 314.28,403.28 "/>
<polyline class="st0" points="503.99,211.32 440.75,211.32 503.99,403.28 "/>
<line class="st0" x1="377.52" y1="211.32" x2="314.28" y2="403.28"/>
<rect x="90.94" y="501.61" class="st0" width="62.65" height="128.96"/>
<rect x="219.04" y="501.61" class="st0" width="62.65" height="128.96"/>
<polygon class="st0" points="440.15,533.27 504.34,533.27 504.34,437.89 314.28,436.61 314.28,630.57 504.34,630.57 504.34,566.09 
	378.28,566.09 378.28,501.61 440.67,501.61 "/>
</svg>
