<?xml version="1.0" encoding="utf-8"?>
<!-- Generator: Adobe Illustrator 24.0.1, SVG Export Plug-In . SVG Version: 6.00 Build 0)  -->
<svg version="1.1" id="레이어_1" xmlns="http://www.w3.org/2000/svg" xmlns:xlink="http://www.w3.org/1999/xlink" x="0px"
	 y="0px" viewBox="0 0 71.72 12.58" style="enable-background:new 0 0 71.72 12.58;" xml:space="preserve">
<style type="text/css">
	.st0{fill:#1C2C60;}
</style>
<g>
	<g>
		<g>
			<path class="st0" d="M6.31,0c0,0-3.91,0.88-4.44,4.28c-0.31,2.3,3.41,1.83,3.41,1.83S4.05,6.82,2.32,6.84C0.6,6.8,0,5.7,0,4.9
				c0,0-0.06-0.62,0.63-1.6c0.6-0.88,1.76-1.95,3.72-2.75C5.2,0.21,6.31,0,6.31,0z"/>
		</g>
		<g>
			<path class="st0" d="M3.68,4.69c0,0,1.72-0.82,3.81-0.81s2.67,1.15,2.67,2S9.72,7.65,8.75,8.66s-2.44,2.14-4.54,2.98
				c-1.72,0.7-3.86,0.83-3.86,0.83s3.19-0.97,5.64-3.51S7.2,5.33,6.91,5.07C6.62,4.8,5.95,4.29,3.68,4.69z"/>
		</g>
		<g>
			<ellipse transform="matrix(0.8537 -0.5207 0.5207 0.8537 0.3467 4.3725)" class="st0" cx="7.96" cy="1.57" rx="1.3" ry="1.14"/>
		</g>
	</g>
	<g>
		<g>
			<g>
				<path class="st0" d="M14.46,6.61c-0.04,0.13-0.27,0.38-0.49,0.59c-0.3,0.28-0.74,0.65-1.13,0.96l-0.44-0.52
					c0.47-0.36,0.93-0.75,1.19-1.01c0.38-0.38,0.48-0.66,0.48-1.17V4.39h0.74v1.05c0,0.46,0.03,0.7,0.38,1.02
					c0.35,0.32,0.77,0.65,1.2,0.97l-0.43,0.51c-0.38-0.29-0.72-0.57-1.08-0.86C14.67,6.88,14.51,6.72,14.46,6.61L14.46,6.61z
					 M14.51,10.16h3.66v0.63h-4.39V8.51h0.73V10.16z M17.31,8.9V6.24h-1.36V5.61h1.36V4.07h0.72V8.9H17.31z"/>
			</g>
		</g>
		<g>
			<g>
				<path class="st0" d="M19.46,8.07V5.93h2.31v-0.9h-2.33V4.41h3.05v2.12h-2.31v0.91h0.62c0.74,0,1.76-0.05,2.41-0.15l0.06,0.61
					c-0.64,0.1-1.76,0.15-2.54,0.15H19.46z M21.14,10.16h3.66v0.63h-4.39V8.76h0.73V10.16z M23.93,8.95V4.07h0.72v4.88H23.93z"/>
			</g>
		</g>
		<g>
			<g>
				<path class="st0" d="M25.85,6.29V5.87c0-0.83,0.67-1.58,1.77-1.58c1.1,0,1.77,0.75,1.77,1.58v0.41c0,0.83-0.67,1.58-1.77,1.58
					C26.52,7.87,25.85,7.12,25.85,6.29z M26.73,5.94v0.28c0,0.44,0.34,0.85,0.89,0.85c0.55,0,0.89-0.41,0.89-0.85V5.94
					c0-0.44-0.34-0.85-0.89-0.85C27.07,5.09,26.73,5.5,26.73,5.94z M27.91,10.02h3.54v0.8h-4.47v-2.3h0.94V10.02z M31.33,8.92h-0.93
					V4.04h0.93V8.92z"/>
			</g>
		</g>
		<g>
			<g>
				<path class="st0" d="M32.65,4.57h3.21v0.79h-2.28v1.11h2.04v0.79h-2.04v1.16h0.51c0.7,0,1.57-0.03,2.26-0.13l0.1,0.78
					c-0.69,0.11-1.68,0.13-2.58,0.13h-1.22V4.57z M36,6.43h1.13v-2.4h0.94v6.86h-0.94V7.23H36V6.43z"/>
			</g>
		</g>
		<g>
			<g>
				<path class="st0" d="M40.04,4.49v2.4c0.81,0.01,1.33-0.03,1.98-0.12l0.1,0.74c-0.69,0.13-1.3,0.15-3.01,0.15V4.49H40.04z
					 M42.35,9.76c-0.04,0.13-0.32,0.3-0.72,0.51c-0.47,0.24-1.01,0.49-1.51,0.7l-0.37-0.77c0.55-0.22,1.16-0.49,1.59-0.72
					c0.35-0.18,0.51-0.41,0.51-0.79V8.11h0.94v0.58c0,0.38,0.14,0.6,0.5,0.79c0.42,0.22,1.08,0.52,1.6,0.72l-0.36,0.74
					c-0.5-0.21-1.04-0.46-1.5-0.7C42.66,10.05,42.41,9.88,42.35,9.76L42.35,9.76z M42.52,6.18H41.2V5.4h1.31V4.13h0.88v3.66h-0.88
					V6.18z M43.87,4.04h0.88v4.41h-0.88V4.04z"/>
			</g>
		</g>
		<g>
			<g>
				<path class="st0" d="M51.81,9.34v0.62h-6.24V9.34h2.26V6.87h0.73v2.47H51.81z M50.89,4.68v0.89c0,1.32-0.08,2.06-0.25,2.98
					l-0.73-0.09c0.18-0.93,0.25-1.72,0.25-2.63V5.31h-3.83V4.68H50.89z"/>
			</g>
		</g>
		<g>
			<g>
				<path class="st0" d="M58.44,7.22v0.62h-6.24V7.22H58.44z M57.49,4.32v0.62h-3.63v1.08h3.68v0.62h-4.4V4.32H57.49z M53.2,9.83
					V9.58c0-0.71,0.83-1.22,2.12-1.22c1.3,0,2.12,0.52,2.12,1.22v0.25c0,0.69-0.82,1.22-2.12,1.22C54.03,11.06,53.2,10.53,53.2,9.83
					z M53.93,9.63v0.16c0,0.35,0.57,0.67,1.4,0.67s1.4-0.32,1.4-0.67V9.63c0-0.35-0.57-0.67-1.4-0.67S53.93,9.27,53.93,9.63z"/>
			</g>
		</g>
		<g>
			<g>
				<path class="st0" d="M62.83,5.4h-3.9V4.78h1.59v-0.8h0.72v0.8h1.58V5.4z M59.3,7.04V6.8c0-0.57,0.49-1.16,1.58-1.16
					s1.58,0.6,1.58,1.16v0.24c0,0.56-0.49,1.16-1.58,1.16S59.3,7.6,59.3,7.04z M59.92,8.66h4.3v2.27h-0.73V9.29h-3.57V8.66z
					 M61.77,7V6.84c0-0.29-0.29-0.61-0.89-0.61c-0.6,0-0.89,0.32-0.89,0.61V7c0,0.29,0.29,0.61,0.89,0.61
					C61.48,7.61,61.77,7.3,61.77,7z M65.18,6.49h-0.97v1.82h-0.72V4.07h0.72v1.78h0.97V6.49z"/>
			</g>
		</g>
		<g>
			<g>
				<path class="st0" d="M71.72,9.34v0.62h-6.24V9.34h1.42V6.99h0.72v2.35h0.9V6.99h0.71v2.35H71.72z M70.87,4.67v0.89
					c0,1.32-0.05,2.06-0.21,2.98l-0.72-0.09c0.18-0.94,0.21-1.72,0.21-2.63V5.31h-3.9V4.67H70.87z"/>
			</g>
		</g>
	</g>
	<g>
		<g>
			<path class="st0" d="M21.84,1.6c-0.02,0.05-0.06,0.12-0.12,0.18c-0.11,0.13-0.25,0.28-0.4,0.43l-0.18-0.18
				c0.16-0.16,0.32-0.32,0.44-0.48c0.11-0.14,0.13-0.28,0.13-0.48V0.53h0.26v0.55c0,0.19,0.01,0.32,0.13,0.46
				c0.12,0.15,0.26,0.3,0.42,0.46l-0.19,0.18c-0.14-0.14-0.27-0.27-0.37-0.4C21.91,1.71,21.87,1.65,21.84,1.6L21.84,1.6z
				 M22.64,0.38h0.27v2.35h-0.27V1.37h-0.4V1.14h0.4V0.38z M23.41,2.84h-0.27V0.32h0.27V2.84z"/>
		</g>
		<g>
			<path class="st0" d="M25.45,0.8h-0.7V0.57h0.96v0.37h0.36V0.38h0.27v2.35h-0.27v-0.9H25.7V1.59h0.37V1.17h-0.36
				c-0.01,0.43-0.14,0.64-0.88,1.13l-0.15-0.21c0.77-0.49,0.77-0.69,0.77-1.06V0.8z M26.85,2.84h-0.27V0.32h0.27V2.84z"/>
		</g>
		<g>
			<path class="st0" d="M28.43,1.87V1.08h1.38V0.75h-1.39V0.52h1.66v0.78H28.7v0.33h1.44v0.23H29.4v0.41h1.02v0.23h-2.31V2.28h1.02
				V1.87H28.43z"/>
		</g>
		<g>
			<path class="st0" d="M33.37,2.18V0.55h1.18v1.63H33.37z M33.64,1.95h0.64V0.78h-0.64V1.95z M35.01,2.84V0.32h0.27v2.52H35.01z"/>
		</g>
		<g>
			<path class="st0" d="M36.74,2.21V1.24h0.69V0.76h-0.69V0.54h0.95v0.92H37v0.53h0.14c0.24,0,0.47-0.01,0.7-0.05l0.03,0.22
				c-0.2,0.03-0.47,0.05-0.81,0.05H36.74z M38.83,2.84h-0.27V1.46h-0.29v1.26h-0.27V0.38h0.27v0.85h0.29V0.32h0.27V2.84z"/>
		</g>
		<g>
			<path class="st0" d="M40.41,1.87V1.08h1.38V0.75H40.4V0.52h1.66v0.78h-1.38v0.33h1.44v0.23h-0.75v0.41h1.02v0.23h-2.31V2.28h1.02
				V1.87H40.41z"/>
		</g>
		<g>
			<path class="st0" d="M47.16,0.43v0.15c0,0.29-0.03,0.53-0.08,0.74h0.4v0.23h-1.02v0.38h0.69v0.92H45.5V1.93h0.69V1.55h-1.02V1.32
				h0.66c0.06-0.22,0.09-0.43,0.09-0.63V0.66h-0.51V0.43h0.77v0.14c0,0.28-0.02,0.52-0.08,0.75h0.71c0.06-0.21,0.08-0.42,0.08-0.61
				V0.66h-0.56V0.43H47.16z M46.89,2.15h-1.12v0.46h1.12V2.15z"/>
		</g>
		<g>
			<path class="st0" d="M50.93,1.42v0.22h-2.31V1.42H50.93z M48.95,2.86V2.23h1.38V2.04h-1.4V1.82h1.66v0.62h-1.38v0.19h1.46v0.22
				H48.95z M50.58,0.77v0.07c0,0.26-0.31,0.43-0.81,0.43c-0.5,0-0.81-0.18-0.81-0.43V0.77c0-0.26,0.31-0.43,0.81-0.43
				C50.27,0.34,50.58,0.51,50.58,0.77z M50.32,0.83V0.78c0-0.12-0.2-0.22-0.54-0.22s-0.54,0.1-0.54,0.22v0.05
				c0,0.12,0.2,0.22,0.54,0.22S50.32,0.95,50.32,0.83z"/>
		</g>
		<g>
			<path class="st0" d="M53.77,1.34h0.26V0.64h-0.24V0.43h1.37v0.22h-0.24v0.68c0.11-0.01,0.22-0.01,0.33-0.02l0.02,0.21
				c-0.34,0.03-0.63,0.04-1.5,0.05V1.34z M54.25,2.86V2.19h1.3V1.95h-1.31V1.73h1.57V2.4h-1.3v0.23h1.37v0.22H54.25z M54.66,1.33
				V0.64h-0.38v0.69L54.66,1.33z M55.54,1.6V1.24h-0.36V1.02h0.36V0.9h-0.36V0.68h0.36V0.32h0.27V1.6H55.54z"/>
		</g>
		<g>
			<path class="st0" d="M57.99,1.64c-0.02,0.06-0.07,0.12-0.16,0.22c-0.11,0.12-0.25,0.26-0.43,0.43l-0.18-0.18
				c0.16-0.15,0.3-0.28,0.42-0.42c0.18-0.2,0.21-0.3,0.21-0.51V0.93h-0.56V0.69h0.56V0.33h0.27v0.36h0.54v0.24h-0.54v0.26
				c0,0.22,0.03,0.3,0.22,0.51c0.12,0.13,0.23,0.24,0.39,0.38l-0.18,0.18c-0.19-0.17-0.3-0.28-0.4-0.4
				C58.09,1.77,58.02,1.7,57.99,1.64L57.99,1.64z M58.99,2.84V0.32h0.27v2.52H58.99z"/>
		</g>
		<g>
			<path class="st0" d="M62.91,1.6v0.23H60.6V1.6H62.91z M61.2,2.58h1.42v0.23h-1.69V2.06h0.27V2.58z M61.21,0.42v0.66h1.36v0.23
				h-1.63V0.42H61.21z"/>
		</g>
	</g>
</g>
</svg>
