<?xml version="1.0" encoding="utf-8"?>
<!-- Generator: Adobe Illustrator 24.0.1, SVG Export Plug-In . SVG Version: 6.00 Build 0)  -->
<svg version="1.1" id="레이어_1" xmlns="http://www.w3.org/2000/svg" xmlns:xlink="http://www.w3.org/1999/xlink" x="0px"
	 y="0px" viewBox="0 0 595.28 841.89" style="enable-background:new 0 0 595.28 841.89;" xml:space="preserve">
<style type="text/css">
	.st0{fill:#202E54;}
</style>
<g>
	<g>
		<g>
			<path class="st0" d="M112.58,381.9c0,0-24.46,5.52-27.8,26.78c-1.97,14.4,21.34,11.48,21.34,11.48s-7.72,4.45-18.55,4.59
				c-10.75-0.28-14.5-7.15-14.5-12.17c0,0-0.4-3.86,3.96-10.05c3.74-5.51,11.03-12.2,23.31-17.21
				C105.64,383.23,112.58,381.9,112.58,381.9z"/>
		</g>
		<g>
			<path class="st0" d="M96.12,411.28c0,0,10.77-5.13,23.88-5.07c13.11,0.06,16.72,7.22,16.72,12.54c0,5.32-2.79,11.08-8.87,17.36
				c-6.08,6.27-15.28,13.41-28.44,18.69c-10.77,4.37-24.2,5.19-24.2,5.19s19.99-6.08,35.3-21.99c15.31-15.91,7.65-22.69,5.83-24.37
				S110.31,408.78,96.12,411.28z"/>
		</g>
		<g>
			
				<ellipse transform="matrix(0.8537 -0.5207 0.5207 0.8537 -186.013 121.2923)" class="st0" cx="122.88" cy="391.73" rx="8.16" ry="7.13"/>
		</g>
	</g>
	<g>
		<g>
			<g>
				<path class="st0" d="M163.63,423.31c-0.23,0.78-1.66,2.4-3.09,3.69c-1.89,1.75-4.62,4.06-7.06,6l-2.72-3.23
					c2.95-2.26,5.82-4.71,7.43-6.32c2.35-2.35,3-4.11,3-7.34v-6.74h4.62v6.56c0,2.86,0.19,4.38,2.4,6.42
					c2.17,1.99,4.8,4.06,7.52,6.05l-2.68,3.19c-2.4-1.8-4.52-3.55-6.74-5.4c-1.39-1.15-2.35-2.17-2.63-2.86H163.63z M163.95,445.51
					h22.9v3.97h-27.47v-14.31h4.57V445.51z M181.45,437.66v-16.71h-8.54v-3.92h8.54v-9.65h4.53v30.28H181.45z"/>
			</g>
		</g>
		<g>
			<g>
				<path class="st0" d="M194.95,432.45v-13.39h14.45v-5.63h-14.59v-3.88h19.11v13.3h-14.45v5.72h3.88c4.62,0,11.03-0.32,15.1-0.92
					l0.37,3.83c-4.02,0.65-11.03,0.97-15.93,0.97H194.95z M205.43,445.51h22.9v3.97h-27.47v-12.74h4.57V445.51z M222.93,437.94
					v-30.56h4.52v30.56H222.93z"/>
			</g>
		</g>
		<g>
			<g>
				<path class="st0" d="M234.95,421.27v-2.58c0-5.22,4.2-9.93,11.08-9.93c6.88,0,11.08,4.71,11.08,9.93v2.58
					c0,5.22-4.2,9.93-11.08,9.93C239.15,431.2,234.95,426.49,234.95,421.27z M240.45,419.11v1.75c0,2.77,2.12,5.31,5.59,5.31
					c3.46,0,5.59-2.54,5.59-5.31v-1.75c0-2.77-2.12-5.31-5.59-5.31C242.57,413.8,240.45,416.34,240.45,419.11z M247.83,444.68h22.16
					v4.99h-28.02v-14.4h5.86V444.68z M269.3,437.76h-5.82V407.2h5.82V437.76z"/>
			</g>
		</g>
		<g>
			<g>
				<path class="st0" d="M277.54,410.52h20.08v4.94h-14.26v6.92h12.79v4.94h-12.79v7.29h3.18c4.38,0,9.83-0.19,14.17-0.79l0.6,4.89
					c-4.29,0.69-10.53,0.83-16.16,0.83h-7.62V410.52z M298.5,422.2h7.06v-15h5.86v42.93h-5.86v-22.94h-7.06V422.2z"/>
			</g>
		</g>
		<g>
			<g>
				<path class="st0" d="M323.82,410.01v15c5.08,0.05,8.31-0.19,12.42-0.74l0.65,4.66c-4.29,0.83-8.17,0.97-18.84,0.97v-19.9H323.82
					z M338.31,443.02c-0.28,0.83-1.99,1.89-4.48,3.19c-2.95,1.52-6.32,3.09-9.46,4.39l-2.31-4.8c3.42-1.38,7.29-3.09,9.97-4.52
					c2.17-1.15,3.18-2.58,3.18-4.94v-3.65h5.91v3.65c0,2.36,0.88,3.74,3.14,4.94c2.63,1.39,6.79,3.23,10.02,4.52l-2.26,4.66
					c-3.14-1.34-6.51-2.91-9.42-4.38c-2.4-1.2-3.92-2.26-4.25-3.05H338.31z M339.33,420.63h-8.22v-4.94h8.22v-7.94h5.49v22.9h-5.49
					V420.63z M347.78,407.2h5.54v27.61h-5.54V407.2z"/>
			</g>
		</g>
		<g>
			<g>
				<path class="st0" d="M397.51,440.39v3.88h-39.06v-3.88h14.13v-15.46h4.57v15.46H397.51z M391.79,411.21v5.59
					c0,8.26-0.51,12.88-1.57,18.65l-4.57-0.55c1.11-5.82,1.57-10.76,1.57-16.48v-3.23h-23.96v-3.97H391.79z"/>
			</g>
		</g>
		<g>
			<g>
				<path class="st0" d="M439.08,427.14v3.88h-39.06v-3.88H439.08z M433.08,408.95v3.88h-22.76v6.79h23.04v3.88H405.8v-14.54H433.08
					z M406.26,443.48v-1.57c0-4.43,5.17-7.66,13.3-7.66c8.12,0,13.3,3.28,13.3,7.66v1.57c0,4.29-5.12,7.66-13.3,7.66
					C411.43,451.14,406.26,447.82,406.26,443.48z M410.78,442.19v1.02c0,2.22,3.55,4.2,8.77,4.2s8.77-1.98,8.77-4.2v-1.02
					c0-2.22-3.55-4.2-8.77-4.2S410.78,439.97,410.78,442.19z"/>
			</g>
		</g>
		<g>
			<g>
				<path class="st0" d="M466.53,415.69h-24.42v-3.83h9.97v-5.03h4.52v5.03h9.93V415.69z M444.41,425.98v-1.48
					c0-3.55,3.09-7.25,9.93-7.25c6.83,0,9.93,3.74,9.93,7.25v1.48c0,3.51-3.09,7.25-9.93,7.25
					C447.51,433.23,444.41,429.49,444.41,425.98z M448.29,436.14h26.91v14.22h-4.57v-10.29h-22.34V436.14z M459.92,425.75v-1.02
					c0-1.85-1.8-3.83-5.59-3.83c-3.79,0-5.59,1.98-5.59,3.83v1.02c0,1.85,1.85,3.83,5.59,3.83
					C458.08,429.58,459.92,427.6,459.92,425.75z M481.25,422.52h-6.05v11.4h-4.52v-26.55h4.52v11.17h6.05V422.52z"/>
			</g>
		</g>
		<g>
			<g>
				<path class="st0" d="M522.22,440.39v3.88h-39.06v-3.88h8.86v-14.73h4.48v14.73h5.63v-14.73h4.48v14.73H522.22z M516.91,411.17
					v5.59c0,8.26-0.32,12.88-1.34,18.65l-4.53-0.56c1.15-5.86,1.34-10.76,1.34-16.48v-3.23h-24.42v-3.97H516.91z"/>
			</g>
		</g>
	</g>
	<g>
		<g>
			<path class="st0" d="M209.86,391.9c-0.1,0.34-0.39,0.74-0.74,1.15c-0.69,0.82-1.57,1.78-2.5,2.7l-1.15-1.15
				c1.03-0.99,2-2.02,2.74-2.98c0.7-0.91,0.8-1.74,0.8-3v-3.42h1.64v3.42c0,1.22,0.08,1.99,0.8,2.91c0.74,0.96,1.63,1.9,2.64,2.89
				l-1.16,1.11c-0.91-0.91-1.66-1.7-2.34-2.52c-0.34-0.41-0.6-0.79-0.72-1.13H209.86z M214.87,384.25h1.66v14.69h-1.66v-8.44h-2.53
				v-1.47h2.53V384.25z M219.66,399.71H218v-15.79h1.66V399.71z"/>
		</g>
		<g>
			<path class="st0" d="M232.41,386.92h-4.38v-1.45h6.04v2.31h2.26v-3.53h1.66v14.69h-1.66v-5.62h-2.31v-1.47h2.31v-2.6h-2.28
				c-0.09,2.67-0.89,3.99-5.53,7.09l-0.94-1.32c4.83-3.1,4.83-4.3,4.83-6.62V386.92z M241.21,399.71h-1.66v-15.79h1.66V399.71z"/>
		</g>
		<g>
			<path class="st0" d="M251.12,393.6v-4.95h8.66v-2.04h-8.73v-1.44h10.41v4.91h-8.66v2.07h9.04v1.44h-4.67v2.57h6.4v1.44h-14.48
				v-1.44h6.4v-2.57H251.12z"/>
		</g>
		<g>
			<path class="st0" d="M282.07,395.55v-10.2h7.38v10.2H282.07z M283.75,394.1h4.02v-7.29h-4.02V394.1z M292.32,399.71v-15.79h1.69
				v15.79H292.32z"/>
		</g>
		<g>
			<path class="st0" d="M303.17,395.72v-6.06h4.35v-3.01h-4.35v-1.39h5.96v5.75h-4.35v3.32h0.87c1.49,0,2.93-0.07,4.38-0.29
				l0.17,1.37c-1.27,0.21-2.93,0.31-5.07,0.31H303.17z M316.27,399.71h-1.66v-8.65h-1.8v7.88h-1.66v-14.69h1.66v5.34h1.8v-5.67h1.66
				V399.71z"/>
		</g>
		<g>
			<path class="st0" d="M326.14,393.6v-4.95h8.66v-2.04h-8.73v-1.44h10.41v4.91h-8.66v2.07h9.04v1.44h-4.67v2.57h6.4v1.44H324.1
				v-1.44h6.4v-2.57H326.14z"/>
		</g>
		<g>
			<path class="st0" d="M368.39,384.59v0.96c0,1.8-0.2,3.32-0.48,4.6h2.53v1.44h-6.39v2.36h4.31v5.73h-10.34v-5.73h4.31v-2.36h-6.39
				v-1.44h4.14c0.36-1.4,0.55-2.72,0.55-3.92v-0.21h-3.22v-1.44h4.85v0.87c0,1.78-0.15,3.25-0.5,4.69h4.43
				c0.38-1.32,0.53-2.64,0.53-3.8v-0.33h-3.53v-1.44H368.39z M366.69,395.38h-6.98v2.89h6.98V395.38z"/>
		</g>
		<g>
			<path class="st0" d="M392.03,390.81v1.4h-14.48v-1.4H392.03z M379.61,399.81v-3.95h8.66v-1.16h-8.75v-1.39h10.41v3.9h-8.66v1.21
				h9.12v1.39H379.61z M389.83,386.73v0.41c0,1.61-1.92,2.72-5.05,2.72c-3.13,0-5.05-1.11-5.05-2.72v-0.41
				c0-1.61,1.92-2.72,5.05-2.72C387.92,384.01,389.83,385.12,389.83,386.73z M388.17,387.11v-0.34c0-0.74-1.23-1.35-3.39-1.35
				s-3.39,0.62-3.39,1.35v0.34c0,0.74,1.23,1.35,3.39,1.35S388.17,387.85,388.17,387.11z"/>
		</g>
		<g>
			<path class="st0" d="M409.81,390.28h1.61v-4.35h-1.51v-1.35h8.61v1.35h-1.49v4.23c0.72-0.03,1.35-0.08,2.07-0.15l0.12,1.32
				c-2.12,0.19-3.95,0.27-9.42,0.31V390.28z M412.81,399.81v-4.23h8.11v-1.46h-8.2v-1.4h9.86v4.23h-8.11v1.46h8.56v1.4H412.81z
				 M415.41,390.23v-4.3h-2.36v4.35L415.41,390.23z M420.92,391.94v-2.28h-2.26v-1.37h2.26v-0.74h-2.26v-1.37h2.26v-2.26h1.66v8.01
				H420.92z"/>
		</g>
		<g>
			<path class="st0" d="M436.25,392.2c-0.15,0.38-0.46,0.75-1.01,1.35c-0.7,0.77-1.56,1.64-2.7,2.7l-1.11-1.15
				c1.03-0.93,1.87-1.76,2.64-2.62c1.13-1.25,1.32-1.9,1.32-3.17v-1.63h-3.53v-1.47h3.53v-2.24h1.71v2.24h3.39v1.47h-3.39v1.63
				c0,1.35,0.19,1.87,1.4,3.18c0.74,0.8,1.46,1.47,2.46,2.36l-1.11,1.15c-1.16-1.06-1.88-1.78-2.53-2.48
				c-0.48-0.51-0.91-0.99-1.04-1.33H436.25z M442.52,399.71v-15.79h1.69v15.79H442.52z"/>
		</g>
		<g>
			<path class="st0" d="M467.05,391.9v1.44h-14.48v-1.44H467.05z M456.35,398.07h8.92v1.47h-10.61v-4.76h1.7V398.07z M456.43,384.54
				v4.11h8.54v1.44h-10.22v-5.55H456.43z"/>
		</g>
	</g>
</g>
</svg>
